<?xml version="1.0" standalone="no"?>
<!DOCTYPE svg PUBLIC "-//W3C//DTD SVG 20010904//EN"
 "http://www.w3.org/TR/2001/REC-SVG-20010904/DTD/svg10.dtd">
<svg version="1.0" xmlns="http://www.w3.org/2000/svg"
 width="288.000000pt" height="292.000000pt" viewBox="0 0 288.000000 292.000000"
 preserveAspectRatio="xMidYMid meet">

<g transform="translate(0.000000,292.000000) scale(0.100000,-0.100000)"
fill="#000000" stroke="none">
<path d="M1180 2815 c-118 -19 -166 -33 -274 -77 -119 -49 -165 -73 -265 -140
-275 -185 -470 -465 -558 -805 -26 -100 -28 -122 -28 -303 0 -215 11 -291 67
-455 109 -318 336 -584 643 -754 104 -58 222 -101 369 -133 81 -18 133 -23
261 -23 224 0 377 32 565 118 400 183 687 548 771 981 39 198 23 454 -41 659
-80 255 -244 495 -447 656 -257 201 -528 293 -857 290 -72 -1 -165 -7 -206
-14z m410 -90 c240 -37 419 -119 635 -293 l29 -23 -41 -40 -40 -41 -69 56
c-193 157 -516 260 -758 242 -266 -20 -528 -125 -694 -279 l-22 -21 -40 39
-40 39 27 28 c59 62 221 162 344 213 205 86 447 114 669 80z m-1092 -544
c-116 -152 -193 -325 -224 -504 -22 -124 -14 -368 15 -480 45 -170 124 -324
238 -465 l26 -33 -38 -39 -39 -40 -29 27 c-15 15 -55 67 -88 116 -230 335
-283 787 -137 1157 52 132 144 289 220 376 l31 35 40 -39 39 -40 -54 -71z
m1874 107 c273 -337 358 -788 227 -1198 -44 -139 -146 -324 -237 -430 l-30
-35 -40 38 -40 39 49 64 c257 340 316 753 162 1144 -33 83 -105 206 -165 281
l-48 59 36 40 c20 22 40 40 44 40 4 0 23 -19 42 -42z m-1062 -184 l0 -116 31
6 c17 3 42 6 55 6 24 0 24 1 24 110 l0 110 75 0 75 0 0 -114 0 -114 48 -6
c138 -20 245 -85 277 -171 27 -69 18 -180 -18 -232 -15 -22 -39 -46 -52 -53
-34 -18 -32 -25 15 -39 113 -34 175 -156 150 -298 -30 -174 -115 -238 -374
-280 l-48 -8 -2 -115 -1 -115 -70 0 -70 0 -3 117 -3 118 -54 0 -55 0 0 -120 0
-120 -70 0 -70 0 0 120 0 120 -145 0 c-80 0 -145 4 -145 8 0 10 18 117 26 150
4 22 9 23 67 20 34 -1 68 1 75 5 9 6 12 88 12 354 0 409 7 383 -107 383 l-73
0 0 80 0 80 145 0 145 0 0 115 0 115 70 0 70 0 0 -116z m-598 -1545 c129 -96
297 -173 463 -210 38 -9 124 -14 235 -14 167 0 180 2 289 33 134 39 295 118
399 197 79 60 85 61 132 10 l25 -27 -45 -40 c-71 -64 -154 -116 -275 -174
-434 -209 -966 -142 -1338 170 l-48 40 38 38 c20 21 39 38 41 38 2 0 40 -27
84 -61z"/>
<path d="M1348 1823 l-38 -4 0 -141 0 -141 105 5 c163 9 227 49 227 146 0 40
-5 51 -35 79 -48 44 -154 66 -259 56z"/>
<path d="M1315 1388 c-3 -7 -4 -79 -3 -158 l3 -145 55 -3 c30 -2 90 2 133 8
154 22 212 69 204 163 -5 60 -32 90 -106 118 -73 28 -277 40 -286 17z"/>
</g>
</svg>