<?xml version="1.0" encoding="UTF-8"?>
<!DOCTYPE svg PUBLIC "-//W3C//DTD SVG 1.1//EN" "http://www.w3.org/Graphics/SVG/1.1/DTD/svg11.dtd">
<svg xmlns="http://www.w3.org/2000/svg" version="1.1" width="4000px" height="4000px" style="shape-rendering:geometricPrecision; text-rendering:geometricPrecision; image-rendering:optimizeQuality; fill-rule:evenodd; clip-rule:evenodd" xmlns:xlink="http://www.w3.org/1999/xlink">
<g><path style="opacity:1" fill="#200236" d="M -0.5,-0.5 C 1332.83,-0.5 2666.17,-0.5 3999.5,-0.5C 3999.5,1332.83 3999.5,2666.17 3999.5,3999.5C 2666.17,3999.5 1332.83,3999.5 -0.5,3999.5C -0.5,2666.17 -0.5,1332.83 -0.5,-0.5 Z"/></g>
<g><path style="opacity:1" fill="#01c59e" d="M 2014.5,773.5 C 2159,772.334 2303.67,772.167 2448.5,773C 2519.06,895.094 2589.73,1017.43 2660.5,1140C 2660.17,1140.33 2659.83,1140.67 2659.5,1141C 2661.87,1142.41 2663.54,1144.41 2664.5,1147C 2519.83,1147.83 2375.17,1147.67 2230.5,1146.5C 2158.31,1021.04 2086.31,896.704 2014.5,773.5 Z"/></g>
<g><path style="opacity:1" fill="#01c59e" d="M 1996.5,775.5 C 2070.26,900.832 2142.93,1026.5 2214.5,1152.5C 2089.63,1224.51 1963.96,1297.17 1837.5,1370.5C 1765.87,1246.57 1693.21,1120.9 1619.5,993.5C 1745.15,920.867 1870.81,848.201 1996.5,775.5 Z"/></g>
<g><path style="opacity:1" fill="#01e9bc" d="M 1606.5,981.5 C 1466.67,981.833 1327,981.5 1187.5,980.5C 1307.17,911.334 1426.83,842.167 1546.5,773C 1686.83,772.813 1827,772.313 1967,771.5C 1967.48,772.448 1967.65,773.448 1967.5,774.5C 1961.26,777.619 1954.93,780.786 1948.5,784C 1835.14,850.529 1721.14,916.363 1606.5,981.5 Z"/></g>
<g><path style="opacity:1" fill="#01c59e" d="M 2475.5,786.5 C 2596.87,856.686 2717.87,926.519 2838.5,996C 2907.96,1117.24 2977.96,1238.24 3048.5,1359C 2927.93,1289.79 2806.93,1220.29 2685.5,1150.5C 2614.4,1028.1 2544.4,906.771 2475.5,786.5 Z"/></g>
<g><path style="opacity:1" fill="#117276" d="M 1187.5,980.5 C 1327,981.5 1466.67,981.833 1606.5,981.5C 1466,982.666 1325.33,982.833 1184.5,982C 1185.53,981.487 1186.53,980.987 1187.5,980.5 Z"/></g>
<g><path style="opacity:1" fill="#01e9bc" d="M 1160.5,997.5 C 1305.3,998.499 1449.97,998.832 1594.5,998.5C 1522.54,1123.59 1450.21,1248.43 1377.5,1373C 1232.83,1373.67 1088.17,1373.67 943.5,1373C 1015.92,1247.93 1088.25,1122.76 1160.5,997.5 Z"/></g>
<g><path style="opacity:1" fill="#01c59e" d="M 1607.5,1007.5 C 1614.81,1018.1 1621.64,1029.1 1628,1040.5C 1693.94,1155.2 1759.44,1268.87 1824.5,1381.5C 1782.71,1454.36 1741.37,1526.53 1700.5,1598C 1669.38,1651.14 1638.54,1703.97 1608,1756.5C 1543.41,1645.53 1479.41,1535.2 1416,1425.5C 1407.95,1411.22 1399.78,1397.05 1391.5,1383C 1463.09,1257.67 1535.09,1132.5 1607.5,1007.5 Z"/></g>
<g><path style="opacity:1" fill="#192748" d="M 2655.5,1165.5 C 2513.93,1166.17 2372.26,1166.83 2230.5,1167.5C 2371.83,1165.5 2513.5,1164.83 2655.5,1165.5 Z"/></g>
<g><path style="opacity:1" fill="#00a987" d="M 2655.5,1165.5 C 2657.41,1166.18 2659.41,1166.68 2661.5,1167C 2590.03,1290.79 2518.69,1414.62 2447.5,1538.5C 2303.67,1538.83 2160,1538.5 2016.5,1537.5C 2087.84,1414.16 2159.17,1290.83 2230.5,1167.5C 2372.26,1166.83 2513.93,1166.17 2655.5,1165.5 Z"/></g>
<g><path style="opacity:1" fill="#00a987" d="M 2681.5,1168.5 C 2775.91,1222.39 2870.25,1276.56 2964.5,1331C 2993.01,1348.42 3022.01,1365.09 3051.5,1381C 3054.18,1382.35 3056.18,1384.35 3057.5,1387C 2985.24,1511.89 2913.07,1636.72 2841,1761.5C 2715.22,1689.54 2590.05,1617.04 2465.5,1544C 2524.95,1440.53 2584.45,1337.03 2644,1233.5C 2657.15,1212.19 2669.65,1190.52 2681.5,1168.5 Z"/></g>
<g><path style="opacity:1" fill="#00a987" d="M 2199.5,1181.5 C 2200.46,1182.72 2200.3,1184.05 2199,1185.5C 2130.18,1304.26 2061.52,1422.93 1993,1541.5C 1873.81,1610.15 1754.48,1678.81 1635,1747.5C 1641.77,1733.67 1649.11,1720.01 1657,1706.5C 1718.86,1600.78 1780.19,1494.78 1841,1388.5C 1961.14,1320.03 2080.64,1251.03 2199.5,1181.5 Z"/></g>
<g><path style="opacity:1" fill="#117677" d="M 940.5,1389.5 C 940.158,1390.34 939.492,1390.67 938.5,1390.5C 937.5,1535.67 937.167,1681 937.5,1826.5C 936.5,1681 936.167,1535.33 936.5,1389.5C 937.833,1389.5 939.167,1389.5 940.5,1389.5 Z"/></g>
<g><path style="opacity:1" fill="#01e9bc" d="M 940.5,1389.5 C 1084.8,1390.5 1228.97,1390.83 1373,1390.5C 1373.5,1535.83 1373.67,1681.17 1373.5,1826.5C 1372.5,1826.5 1371.5,1826.5 1370.5,1826.5C 1226.84,1824.5 1082.84,1823.83 938.5,1824.5C 938.5,1679.83 938.5,1535.17 938.5,1390.5C 939.492,1390.67 940.158,1390.34 940.5,1389.5 Z"/></g>
<g><path style="opacity:1" fill="#00a987" d="M 3069.5,1401.5 C 3070.5,1401.41 3071.33,1401.75 3072,1402.5C 3143.8,1526.45 3215.3,1650.45 3286.5,1774.5C 3215.87,1895.73 3145.71,2017.4 3076,2139.5C 3074.33,2142 3072.49,2144.33 3070.5,2146.5C 3005.29,2034.06 2940.12,1921.73 2875,1809.5C 2869.18,1797.16 2862.68,1785.16 2855.5,1773.5C 2927.04,1649.46 2998.37,1525.46 3069.5,1401.5 Z"/></g>
<g><path style="opacity:1" fill="#01c59e" d="M 1389.5,1412.5 C 1460.06,1534.11 1529.89,1654.78 1599,1774.5C 1599.67,1914.5 1599.67,2054.5 1599,2194.5C 1529.15,2074.23 1459.48,1953.56 1390,1832.5C 1390.83,1692.67 1390.66,1552.67 1389.5,1412.5 Z"/></g>
<g><path style="opacity:1" fill="#01c59e" d="M 918.5,1416.5 C 919.833,1485.5 920.5,1554.83 920.5,1624.5C 920.163,1694.54 920.163,1764.37 920.5,1834C 851.187,1953.35 781.687,2073.52 712,2194.5C 711.333,2054.83 711.333,1915.17 712,1775.5C 780.818,1655.87 849.651,1536.2 918.5,1416.5 Z"/></g>
<g><path style="opacity:1" fill="#192548" d="M 2016.5,1537.5 C 2160,1538.5 2303.67,1538.83 2447.5,1538.5C 2303.33,1539.67 2159,1539.83 2014.5,1539C 2015.04,1538.28 2015.71,1537.78 2016.5,1537.5 Z"/></g>
<g><path style="opacity:1" fill="#1c183f" d="M 2452.5,1558.5 C 2314.67,1558.17 2177,1558.5 2039.5,1559.5C 2037.9,1559.69 2036.56,1559.19 2035.5,1558C 2174.67,1557.17 2313.67,1557.33 2452.5,1558.5 Z"/></g>
<g><path style="opacity:1" fill="#009375" d="M 2039.5,1559.5 C 2177,1558.5 2314.67,1558.17 2452.5,1558.5C 2570.4,1626.95 2688.4,1695.11 2806.5,1763C 2804.24,1763.24 2802.07,1763.74 2800,1764.5C 2665.33,1763.17 2530.67,1763.17 2396,1764.5C 2276.9,1696.63 2158.06,1628.3 2039.5,1559.5 Z"/></g>
<g><path style="opacity:1" fill="#1c193f" d="M 2839.5,1784.5 C 2695.83,1783.83 2552.5,1784.5 2409.5,1786.5C 2408.73,1785.83 2408.07,1784.99 2407.5,1784C 2551.67,1783.17 2695.67,1783.33 2839.5,1784.5 Z"/></g>
<g><path style="opacity:1" fill="#009375" d="M 2839.5,1784.5 C 2910.54,1908.75 2982.2,2032.58 3054.5,2156C 2910.91,2156.65 2767.24,2156.65 2623.5,2156C 2552.2,2032.6 2480.86,1909.43 2409.5,1786.5C 2552.5,1784.5 2695.83,1783.83 2839.5,1784.5 Z"/></g>
<g><path style="opacity:1" fill="#1a2447" d="M 2402.5,1810.5 C 2401.5,1948 2401.17,2085.67 2401.5,2223.5C 2400.33,2084.67 2400.17,1945.67 2401,1806.5C 2401.79,1807.74 2402.29,1809.08 2402.5,1810.5 Z"/></g>
<g><path style="opacity:1" fill="#00a987" d="M 2402.5,1810.5 C 2470.87,1929.49 2539.53,2048.15 2608.5,2166.5C 2608.83,2305.33 2608.5,2444 2607.5,2582.5C 2540,2464.16 2471.84,2346.16 2403,2228.5C 2402.2,2226.49 2401.7,2224.82 2401.5,2223.5C 2401.17,2085.67 2401.5,1948 2402.5,1810.5 Z"/></g>
<g><path style="opacity:1" fill="#00f1bb" d="M 938.5,1390.5 C 938.5,1535.17 938.5,1679.83 938.5,1824.5C 1082.84,1823.83 1226.84,1824.5 1370.5,1826.5C 1226.17,1826.5 1081.83,1826.5 937.5,1826.5C 937.167,1681 937.5,1535.67 938.5,1390.5 Z"/></g>
<g><path style="opacity:1" fill="#00a988" d="M 3081.5,2582.5 C 3080.5,2447 3080.17,2311.33 3080.5,2175.5C 3080.21,2171.27 3081.04,2166.94 3083,2162.5C 3150.95,2045.6 3218.61,1928.6 3286,1811.5C 3286.22,1814.43 3286.72,1817.26 3287.5,1820C 3286.17,1954.96 3286.17,2089.96 3287.5,2225C 3218.88,2343.69 3150.21,2462.86 3081.5,2582.5 Z"/></g>
<g><path style="opacity:1" fill="#01e9bc" d="M 942.5,1843.5 C 1087.33,1842.33 1232.33,1842.17 1377.5,1843C 1449.44,1968.07 1521.44,2092.91 1593.5,2217.5C 1448.83,2218.67 1304.17,2218.83 1159.5,2218C 1089.99,2098.79 1021.15,1979.29 953,1859.5C 949.404,1854.18 945.904,1848.85 942.5,1843.5 Z"/></g>
<g><path style="opacity:1" fill="#01c59e" d="M 928.5,1851.5 C 932.212,1857.74 936.212,1863.91 940.5,1870C 1005.8,1984.2 1071.8,2098.53 1138.5,2213C 1138.17,2213.33 1137.83,2213.67 1137.5,2214C 1141.93,2218.36 1144.43,2223.19 1145,2228.5C 1076.57,2345.95 1009.07,2463.12 942.5,2580C 937.602,2587.24 933.102,2594.74 929,2602.5C 891.048,2536.3 852.714,2469.97 814,2403.5C 780.284,2344.56 746.45,2285.73 712.5,2227C 784.433,2101.62 856.433,1976.46 928.5,1851.5 Z"/></g>
<g><path style="opacity:1" fill="#1a2347" d="M 2608.5,2166.5 C 2609.67,2306 2609.83,2445.67 2609,2585.5C 2607.96,2584.76 2607.46,2583.76 2607.5,2582.5C 2608.5,2444 2608.83,2305.33 2608.5,2166.5 Z"/></g>
<g><path style="opacity:1" fill="#1c183f" d="M 2627.5,2175.5 C 2772.17,2175.5 2916.83,2175.5 3061.5,2175.5C 3061.5,2320.17 3061.5,2464.83 3061.5,2609.5C 2916.83,2609.5 2772.17,2609.5 2627.5,2609.5C 2627.5,2464.83 2627.5,2320.17 2627.5,2175.5 Z"/></g>
<g><path style="opacity:1" fill="#1a2246" d="M 3080.5,2175.5 C 3080.17,2311.33 3080.5,2447 3081.5,2582.5C 3081.29,2583.92 3080.79,2585.26 3080,2586.5C 3079.17,2449.33 3079.33,2312.33 3080.5,2175.5 Z"/></g>
<g><path style="opacity:1" fill="#02936f" d="M 2630.5,2176.5 C 2631.17,2320.5 2630.5,2464.17 2628.5,2607.5C 2627.83,2463.5 2628.5,2319.83 2630.5,2176.5 Z"/></g>
<g><path style="opacity:1" fill="#009375" d="M 2630.5,2176.5 C 2773.83,2176.5 2917.17,2176.5 3060.5,2176.5C 3060.5,2320.5 3060.5,2464.5 3060.5,2608.5C 2916.33,2608.83 2772.33,2608.5 2628.5,2607.5C 2630.5,2464.17 2631.17,2320.5 2630.5,2176.5 Z"/></g>
<g><path style="opacity:1" fill="#01e9bc" d="M 1186.5,2235.5 C 1326.67,2234.33 1467,2234.17 1607.5,2235C 1728.17,2305.29 1849.17,2375.29 1970.5,2445C 1830.4,2445.64 1690.06,2445.64 1549.5,2445C 1428.32,2375.29 1307.32,2305.46 1186.5,2235.5 Z"/></g>
<g><path style="opacity:1" fill="#01c59e" d="M 1157.5,2238.5 C 1164.42,2241.96 1171.42,2245.46 1178.5,2249C 1297.15,2317.71 1416.49,2386.71 1536.5,2456C 1525.4,2473.97 1515.06,2491.97 1505.5,2510C 1502.99,2512.06 1501.65,2514.39 1501.5,2517C 1497.5,2523 1493.5,2529 1489.5,2535C 1489.83,2535.33 1490.17,2535.67 1490.5,2536C 1432.37,2634.92 1374.7,2734.08 1317.5,2833.5C 1191.08,2760.35 1065.41,2687.51 940.5,2615C 1013.56,2489.3 1085.9,2363.8 1157.5,2238.5 Z"/></g>
<g><path style="opacity:1" fill="#00a987" d="M 2391.5,2244.5 C 2463.35,2369.02 2535.35,2493.52 2607.5,2618C 2535.79,2742.58 2463.96,2867.08 2392,2991.5C 2319.3,2867.47 2247.46,2742.97 2176.5,2618C 2248.6,2494 2320.27,2369.5 2391.5,2244.5 Z"/></g>
<g><path style="opacity:1" fill="#01c59e" d="M 2366.5,2250.5 C 2367.62,2252.09 2367.45,2253.76 2366,2255.5C 2297.12,2374.3 2228.62,2492.97 2160.5,2611.5C 2061.31,2669.13 1961.64,2726.96 1861.5,2785C 1860.17,2785.33 1858.83,2785.67 1857.5,2786C 1837.86,2798.68 1818.03,2810.18 1798,2820.5C 1866.79,2699.23 1936.29,2578.56 2006.5,2458.5C 2126.47,2389.52 2246.47,2320.19 2366.5,2250.5 Z"/></g>
<g><path style="opacity:1" fill="#01c59e" d="M 1551.5,2461.5 C 1696.17,2461.33 1840.83,2461.5 1985.5,2462C 1974.01,2480.49 1963.17,2499.32 1953,2518.5C 1951.54,2520.96 1949.71,2523.13 1947.5,2525C 1947.83,2525.33 1948.17,2525.67 1948.5,2526C 1941.16,2537.74 1934.49,2549.4 1928.5,2561C 1875.36,2652.2 1822.03,2743.87 1768.5,2836C 1624.17,2836.67 1479.83,2836.67 1335.5,2836C 1408.67,2709.57 1480.67,2584.74 1551.5,2461.5 Z"/></g>
<g><path style="opacity:1" fill="#1c183f" d="M 2623.5,2628.5 C 2767.33,2627.33 2911.33,2627.17 3055.5,2628C 3054.96,2628.72 3054.29,2629.22 3053.5,2629.5C 2910.33,2628.5 2767,2628.17 2623.5,2628.5 Z"/></g>
<g><path style="opacity:1" fill="#009375" d="M 2623.5,2628.5 C 2767,2628.17 2910.33,2628.5 3053.5,2629.5C 2981.91,2753.01 2910.58,2876.67 2839.5,3000.5C 2695.83,3001.17 2552.5,3000.5 2409.5,2998.5C 2481.27,2875.66 2552.6,2752.32 2623.5,2628.5 Z"/></g>
<g><path style="opacity:1" fill="#00a987" d="M 2161.5,2630.5 C 2233.59,2754.34 2305.42,2878.34 2377,3002.5C 2377.81,3004.44 2378.31,3006.44 2378.5,3008.5C 2333.3,3033.77 2288.3,3059.6 2243.5,3086C 2163.5,3131.62 2083.67,3177.78 2004,3224.5C 1931.41,3099.5 1858.91,2974.33 1786.5,2849C 1852.07,2809.38 1918.4,2771.05 1985.5,2734C 1991.75,2728.76 1998.75,2724.76 2006.5,2722C 2008.21,2719.96 2010.21,2718.29 2012.5,2717C 2062.75,2689.19 2112.41,2660.35 2161.5,2630.5 Z"/></g>
<g><path style="opacity:1" fill="#00a987" d="M 954.5,2643.5 C 1073.78,2713.15 1193.45,2782.31 1313.5,2851C 1383.38,2970.45 1452.72,3090.11 1521.5,3210C 1520.5,3210.67 1519.5,3210.67 1518.5,3210C 1400.12,3141.24 1281.45,3072.74 1162.5,3004.5C 1093.16,2884.12 1023.83,2763.78 954.5,2643.5 Z"/></g>
<g><path style="opacity:1" fill="#00a988" d="M 1337.5,2855.5 C 1481.22,2854.34 1624.88,2854.17 1768.5,2855C 1840.43,2978.86 1912.1,3102.86 1983.5,3227C 1839.85,3226.86 1695.85,3226.36 1551.5,3225.5C 1480.36,3101.78 1409.03,2978.45 1337.5,2855.5 Z"/></g>
<g><path style="opacity:1" fill="#1c193f" d="M 2409.5,2998.5 C 2552.5,3000.5 2695.83,3001.17 2839.5,3000.5C 2695.67,3001.67 2551.67,3001.83 2407.5,3001C 2408.07,3000.01 2408.73,2999.17 2409.5,2998.5 Z"/></g>
<g><path style="opacity:1" fill="#1c183f" d="M 2392.5,3020.5 C 2531.67,3019.33 2671,3019.17 2810.5,3020C 2809.44,3021.19 2808.1,3021.69 2806.5,3021.5C 2668.67,3020.5 2530.67,3020.17 2392.5,3020.5 Z"/></g>
<g><path style="opacity:1" fill="#009375" d="M 2392.5,3020.5 C 2530.67,3020.17 2668.67,3020.5 2806.5,3021.5C 2688.16,3089.51 2569.83,3157.85 2451.5,3226.5C 2313.67,3226.83 2176,3226.5 2038.5,3225.5C 2155.29,3158.54 2271.96,3091.37 2388.5,3024C 2390.09,3023.05 2391.43,3021.88 2392.5,3020.5 Z"/></g>
<g><path style="opacity:1" fill="#1c183f" d="M 2038.5,3225.5 C 2176,3226.5 2313.67,3226.83 2451.5,3226.5C 2312.67,3227.67 2173.67,3227.83 2034.5,3227C 2035.74,3226.21 2037.08,3225.71 2038.5,3225.5 Z"/></g>
</svg>
